<svg id="visual" viewBox="0 0 900 600" width="900" height="600" xmlns="http://www.w3.org/2000/svg" xmlns:xlink="http://www.w3.org/1999/xlink" version="1.1"><path d="M0 407L11.5 405.7C23 404.3 46 401.7 69 400.8C92 400 115 401 138.2 393.8C161.3 386.7 184.7 371.3 207.8 361.7C231 352 254 348 277 350.5C300 353 323 362 346 368.3C369 374.7 392 378.3 415.2 382.3C438.3 386.3 461.7 390.7 484.8 393.5C508 396.3 531 397.7 554 395.2C577 392.7 600 386.3 623 374.8C646 363.3 669 346.7 692.2 341.7C715.3 336.7 738.7 343.3 761.8 343.5C785 343.7 808 337.3 831 343.8C854 350.3 877 369.7 888.5 379.3L900 389L900 601L888.5 601C877 601 854 601 831 601C808 601 785 601 761.8 601C738.7 601 715.3 601 692.2 601C669 601 646 601 623 601C600 601 577 601 554 601C531 601 508 601 484.8 601C461.7 601 438.3 601 415.2 601C392 601 369 601 346 601C323 601 300 601 277 601C254 601 231 601 207.8 601C184.7 601 161.3 601 138.2 601C115 601 92 601 69 601C46 601 23 601 11.5 601L0 601Z" fill="#a2ee63"></path><path d="M0 359L11.5 363.3C23 367.7 46 376.3 69 384.3C92 392.3 115 399.7 138.2 394.3C161.3 389 184.7 371 207.8 363.7C231 356.3 254 359.7 277 364.5C300 369.3 323 375.7 346 380.7C369 385.7 392 389.3 415.2 397C438.3 404.7 461.7 416.3 484.8 419.2C508 422 531 416 554 402.8C577 389.7 600 369.3 623 360.3C646 351.3 669 353.7 692.2 354.2C715.3 354.7 738.7 353.3 761.8 360.2C785 367 808 382 831 387C854 392 877 387 888.5 384.5L900 382L900 601L888.5 601C877 601 854 601 831 601C808 601 785 601 761.8 601C738.7 601 715.3 601 692.2 601C669 601 646 601 623 601C600 601 577 601 554 601C531 601 508 601 484.8 601C461.7 601 438.3 601 415.2 601C392 601 369 601 346 601C323 601 300 601 277 601C254 601 231 601 207.8 601C184.7 601 161.3 601 138.2 601C115 601 92 601 69 601C46 601 23 601 11.5 601L0 601Z" fill="#93e560"></path><path d="M0 416L11.5 411.7C23 407.3 46 398.7 69 399.2C92 399.7 115 409.3 138.2 412.3C161.3 415.3 184.7 411.7 207.8 415.7C231 419.7 254 431.3 277 437.7C300 444 323 445 346 446C369 447 392 448 415.2 444.8C438.3 441.7 461.7 434.3 484.8 424.3C508 414.3 531 401.7 554 402.7C577 403.7 600 418.3 623 423.5C646 428.7 669 424.3 692.2 421.3C715.3 418.3 738.7 416.7 761.8 417.3C785 418 808 421 831 424.2C854 427.3 877 430.7 888.5 432.3L900 434L900 601L888.5 601C877 601 854 601 831 601C808 601 785 601 761.8 601C738.7 601 715.3 601 692.2 601C669 601 646 601 623 601C600 601 577 601 554 601C531 601 508 601 484.8 601C461.7 601 438.3 601 415.2 601C392 601 369 601 346 601C323 601 300 601 277 601C254 601 231 601 207.8 601C184.7 601 161.3 601 138.2 601C115 601 92 601 69 601C46 601 23 601 11.5 601L0 601Z" fill="#83dc5c"></path><path d="M0 430L11.5 428C23 426 46 422 69 420.5C92 419 115 420 138.2 418.8C161.3 417.7 184.7 414.3 207.8 416.2C231 418 254 425 277 432.5C300 440 323 448 346 450C369 452 392 448 415.2 449C438.3 450 461.7 456 484.8 454.3C508 452.7 531 443.3 554 438.2C577 433 600 432 623 431.8C646 431.7 669 432.3 692.2 432.7C715.3 433 738.7 433 761.8 429C785 425 808 417 831 422.3C854 427.7 877 446.3 888.5 455.7L900 465L900 601L888.5 601C877 601 854 601 831 601C808 601 785 601 761.8 601C738.7 601 715.3 601 692.2 601C669 601 646 601 623 601C600 601 577 601 554 601C531 601 508 601 484.8 601C461.7 601 438.3 601 415.2 601C392 601 369 601 346 601C323 601 300 601 277 601C254 601 231 601 207.8 601C184.7 601 161.3 601 138.2 601C115 601 92 601 69 601C46 601 23 601 11.5 601L0 601Z" fill="#74d259"></path><path d="M0 443L11.5 449.3C23 455.7 46 468.3 69 470C92 471.7 115 462.3 138.2 459.8C161.3 457.3 184.7 461.7 207.8 461C231 460.3 254 454.7 277 450C300 445.3 323 441.7 346 439.2C369 436.7 392 435.3 415.2 443C438.3 450.7 461.7 467.3 484.8 472.3C508 477.3 531 470.7 554 469C577 467.3 600 470.7 623 465.8C646 461 669 448 692.2 442.8C715.3 437.7 738.7 440.3 761.8 441.2C785 442 808 441 831 442.5C854 444 877 448 888.5 450L900 452L900 601L888.5 601C877 601 854 601 831 601C808 601 785 601 761.8 601C738.7 601 715.3 601 692.2 601C669 601 646 601 623 601C600 601 577 601 554 601C531 601 508 601 484.8 601C461.7 601 438.3 601 415.2 601C392 601 369 601 346 601C323 601 300 601 277 601C254 601 231 601 207.8 601C184.7 601 161.3 601 138.2 601C115 601 92 601 69 601C46 601 23 601 11.5 601L0 601Z" fill="#64c956"></path><path d="M0 518L11.5 512.8C23 507.7 46 497.3 69 490.8C92 484.3 115 481.7 138.2 486C161.3 490.3 184.7 501.7 207.8 502.3C231 503 254 493 277 490.5C300 488 323 493 346 490.2C369 487.3 392 476.7 415.2 480.3C438.3 484 461.7 502 484.8 508.7C508 515.3 531 510.7 554 503.2C577 495.7 600 485.3 623 484C646 482.7 669 490.3 692.2 492.7C715.3 495 738.7 492 761.8 495C785 498 808 507 831 512C854 517 877 518 888.5 518.5L900 519L900 601L888.5 601C877 601 854 601 831 601C808 601 785 601 761.8 601C738.7 601 715.3 601 692.2 601C669 601 646 601 623 601C600 601 577 601 554 601C531 601 508 601 484.8 601C461.7 601 438.3 601 415.2 601C392 601 369 601 346 601C323 601 300 601 277 601C254 601 231 601 207.8 601C184.7 601 161.3 601 138.2 601C115 601 92 601 69 601C46 601 23 601 11.5 601L0 601Z" fill="#54bf53"></path><path d="M0 514L11.5 511C23 508 46 502 69 498.7C92 495.3 115 494.7 138.2 501.3C161.3 508 184.7 522 207.8 527.7C231 533.3 254 530.7 277 527.8C300 525 323 522 346 520.3C369 518.7 392 518.3 415.2 516.7C438.3 515 461.7 512 484.8 511.8C508 511.7 531 514.3 554 514.8C577 515.3 600 513.7 623 518C646 522.3 669 532.7 692.2 533C715.3 533.3 738.7 523.7 761.8 515C785 506.3 808 498.7 831 495.2C854 491.7 877 492.3 888.5 492.7L900 493L900 601L888.5 601C877 601 854 601 831 601C808 601 785 601 761.8 601C738.7 601 715.3 601 692.2 601C669 601 646 601 623 601C600 601 577 601 554 601C531 601 508 601 484.8 601C461.7 601 438.3 601 415.2 601C392 601 369 601 346 601C323 601 300 601 277 601C254 601 231 601 207.8 601C184.7 601 161.3 601 138.2 601C115 601 92 601 69 601C46 601 23 601 11.5 601L0 601Z" fill="#43b650"></path><path d="M0 562L11.5 561.5C23 561 46 560 69 555.8C92 551.7 115 544.3 138.2 537.7C161.3 531 184.7 525 207.8 529C231 533 254 547 277 553.3C300 559.7 323 558.3 346 552.3C369 546.3 392 535.7 415.2 530.7C438.3 525.7 461.7 526.3 484.8 530.3C508 534.3 531 541.7 554 545.7C577 549.7 600 550.3 623 549C646 547.7 669 544.3 692.2 542.2C715.3 540 738.7 539 761.8 536.5C785 534 808 530 831 528.2C854 526.3 877 526.7 888.5 526.8L900 527L900 601L888.5 601C877 601 854 601 831 601C808 601 785 601 761.8 601C738.7 601 715.3 601 692.2 601C669 601 646 601 623 601C600 601 577 601 554 601C531 601 508 601 484.8 601C461.7 601 438.3 601 415.2 601C392 601 369 601 346 601C323 601 300 601 277 601C254 601 231 601 207.8 601C184.7 601 161.3 601 138.2 601C115 601 92 601 69 601C46 601 23 601 11.5 601L0 601Z" fill="#30ac4d"></path><path d="M0 571L11.5 573.8C23 576.7 46 582.3 69 578.8C92 575.3 115 562.7 138.2 559.8C161.3 557 184.7 564 207.8 568.2C231 572.3 254 573.7 277 573C300 572.3 323 569.7 346 566.7C369 563.7 392 560.3 415.2 563.5C438.3 566.7 461.7 576.3 484.8 580.7C508 585 531 584 554 582C577 580 600 577 623 572.2C646 567.3 669 560.7 692.2 560.2C715.3 559.7 738.7 565.3 761.8 566.7C785 568 808 565 831 567.3C854 569.7 877 577.3 888.5 581.2L900 585L900 601L888.5 601C877 601 854 601 831 601C808 601 785 601 761.8 601C738.7 601 715.3 601 692.2 601C669 601 646 601 623 601C600 601 577 601 554 601C531 601 508 601 484.8 601C461.7 601 438.3 601 415.2 601C392 601 369 601 346 601C323 601 300 601 277 601C254 601 231 601 207.8 601C184.7 601 161.3 601 138.2 601C115 601 92 601 69 601C46 601 23 601 11.5 601L0 601Z" fill="#16a34a"></path></svg>